<?xml version="1.0" encoding="UTF-8"?>
<svg width="32px" height="41px" viewBox="0 0 32 41" version="1.1" xmlns="http://www.w3.org/2000/svg" xmlns:xlink="http://www.w3.org/1999/xlink">
    <!-- Generator: Sketch 43.1 (39012) - http://www.bohemiancoding.com/sketch -->
    <title>cinema</title>
    <desc>Created with Sketch.</desc>
    <defs></defs>
    <g id="Page-1" stroke="none" stroke-width="1" fill="none" fill-rule="evenodd">
        <g id="cinema">
            <path d="M26.53125,0.46875 L5.46875,0.46875 C4.4331875,0.46875 3.59375,1.3081875 3.59375,2.34375 L3.59375,14.21875 C3.59375,15.2543125 4.4331875,16.09375 5.46875,16.09375 L26.53125,16.09375 C27.5668125,16.09375 28.40625,15.2543125 28.40625,14.21875 L28.40625,2.34375 C28.40625,1.3081875 27.56675,0.46875 26.53125,0.46875 Z" id="Shape" fill="#FF983B" fill-rule="nonzero"></path>
            <path d="M5.46875,16.09375 L26.53125,16.09375 C27.5668125,16.09375 28.40625,15.2543125 28.40625,14.21875 L28.40625,2.34375 C28.40625,1.3081875 27.5668125,0.46875 26.53125,0.46875 L26.53125,14.21875 L3.59375,14.21875 C3.59375,15.2543125 4.4331875,16.09375 5.46875,16.09375 Z" id="Shape" fill="#FF6344" fill-rule="nonzero"></path>
            <polygon id="Shape" fill="#FFCF5D" fill-rule="nonzero" points="18.8125 8.28125 16 9.6875 13.1875 11.09375 13.1875 8.28125 13.1875 5.46875 16 6.875"></polygon>
            <g id="Group" transform="translate(1.062500, 13.312500)" fill-rule="nonzero" fill="#224B80">
                <path d="M5.03125,2.8125 C5.03125,1.4318125 3.9119375,0 2.53125,0 C1.1505625,0 0.03125,1.4318125 0.03125,2.8125 C0.03125,3.77775 0.578625,4.614625 1.379625,5.03125 C0.6349375,5.03125 0.03125,5.6349375 0.03125,6.3795625 L0.03125,7.53125 L5.03125,7.53125 L5.03125,6.3795625 C5.03125,5.634875 4.4275625,5.03125 3.682875,5.03125 C4.483875,4.614625 5.03125,3.77775 5.03125,2.8125 Z" id="Shape"></path>
                <path d="M13.3020625,2.8125 C13.3020625,1.4318125 12.18275,0 10.8020625,0 C9.421375,0 8.3020625,1.4318125 8.3020625,2.8125 C8.3020625,3.77775 8.8494375,4.614625 9.6504375,5.03125 C8.90575,5.03125 8.3020625,5.6349375 8.3020625,6.3795625 L8.3020625,7.53125 L13.3020625,7.53125 L13.3020625,6.3795625 C13.3020625,5.634875 12.698375,5.03125 11.9536875,5.03125 C12.7546875,4.614625 13.3020625,3.77775 13.3020625,2.8125 Z" id="Shape"></path>
                <path d="M21.5729375,2.8125 C21.5729375,1.4318125 20.453625,0 19.0729375,0 C17.69225,0 16.5729375,1.4318125 16.5729375,2.8125 C16.5729375,3.77775 17.1203125,4.614625 17.9213125,5.03125 C17.176625,5.03125 16.5729375,5.6349375 16.5729375,6.3795625 L16.5729375,7.53125 L21.5729375,7.53125 L21.5729375,6.3795625 C21.5729375,5.634875 20.96925,5.03125 20.2245625,5.03125 C21.0255,4.614625 21.5729375,3.77775 21.5729375,2.8125 Z" id="Shape"></path>
                <path d="M28.495375,5.03125 C29.2963125,4.614625 29.84375,3.77775 29.84375,2.8125 C29.84375,1.4318125 28.7244375,0 27.34375,0 C25.9630625,0 24.84375,1.4318125 24.84375,2.8125 C24.84375,3.77775 25.391125,4.614625 26.192125,5.03125 C25.4474375,5.03125 24.84375,5.6349375 24.84375,6.3795625 L24.84375,7.53125 L29.84375,7.53125 L29.84375,6.3795625 C29.84375,5.6349375 29.2400625,5.03125 28.495375,5.03125 Z" id="Shape"></path>
            </g>
            <g id="Group" transform="translate(1.062500, 13.312500)" fill-rule="nonzero" fill="#517AAC">
                <path d="M2.53125,0 C1.1505625,0 0.03125,1.4318125 0.03125,2.8125 C0.03125,3.0715625 0.0718125,3.3209375 0.145,3.555875 C0.7641875,3.738125 1.4923125,3.6849375 2.0476875,3.3960625 C2.848625,2.9794375 3.3960625,2.1425625 3.3960625,1.1773125 C3.3960625,0.8156875 3.318375,0.449125 3.1801875,0.107125 C2.973125,0.0374375 2.756,0 2.53125,0 Z" id="Shape"></path>
                <path d="M10.8020625,0 C9.421375,0 8.3020625,1.4318125 8.3020625,2.8125 C8.3020625,3.0715625 8.342625,3.3209375 8.4158125,3.555875 C9.035,3.738125 9.763125,3.6849375 10.3185,3.3960625 C11.1194375,2.9794375 11.666875,2.1425625 11.666875,1.1773125 C11.666875,0.8159375 11.589375,0.4490625 11.4514375,0.10725 C11.244375,0.0375625 11.0268125,0 10.8020625,0 Z" id="Shape"></path>
                <path d="M19.0729375,0 C17.69225,0 16.5729375,1.4318125 16.5729375,2.8125 C16.5729375,3.0715625 16.6135,3.3209375 16.6866875,3.555875 C17.305875,3.738125 18.034,3.6849375 18.589375,3.3960625 C19.3903125,2.9794375 19.93775,2.1425625 19.93775,1.1773125 C19.93775,0.816125 19.8595625,0.44875 19.7216875,0.1070625 C19.5146875,0.0374375 19.2975625,0 19.0729375,0 Z" id="Shape"></path>
                <path d="M27.34375,0 C25.9630625,0 24.84375,1.4318125 24.84375,2.8125 C24.84375,3.0715625 24.8843125,3.3209375 24.9575,3.555875 C25.5766875,3.738125 26.3048125,3.6849375 26.8601875,3.3960625 C27.661125,2.9794375 28.2085625,2.1425625 28.2085625,1.1773125 C28.2085625,0.8159375 28.130875,0.449 27.992875,0.1071875 C27.785875,0.0375625 27.568375,0 27.34375,0 Z" id="Shape"></path>
            </g>
            <path d="M31.53125,20.84375 C31.53125,20.4985625 31.2514375,20.21875 30.90625,20.21875 L25.90625,20.21875 C25.5610625,20.21875 25.28125,20.4985625 25.28125,20.84375 L25.28125,23.03125 L23.2604375,23.03125 L23.2604375,20.84375 C23.2604375,20.4985625 22.980625,20.21875 22.6354375,20.21875 L17.6354375,20.21875 C17.29025,20.21875 17.0104375,20.4985625 17.0104375,20.84375 L17.0104375,23.03125 L14.989625,23.03125 L14.989625,20.84375 C14.989625,20.4985625 14.7098125,20.21875 14.364625,20.21875 L9.364625,20.21875 C9.0194375,20.21875 8.739625,20.4985625 8.739625,20.84375 L8.739625,23.03125 L6.71875,23.03125 L6.71875,20.84375 C6.71875,20.4985625 6.4389375,20.21875 6.09375,20.21875 L1.09375,20.21875 C0.7485625,20.21875 0.46875,20.4985625 0.46875,20.84375 L0.46875,23.96875 L4.59375,23.96875 L4.59375,26.78125 L8.7395625,26.78125 L10.84375,26.78125 L12.90625,26.78125 L14.9895625,26.78125 L17.010375,26.78125 L19.15625,26.78125 L21.21875,26.78125 L23.2604375,26.78125 L27.46875,26.78125 L27.46875,23.96875 L31.53125,23.96875 L31.53125,20.84375 Z" id="Shape" fill="#FF5368" fill-rule="nonzero"></path>
            <g id="Group" transform="translate(4.562500, 20.187500)" fill-rule="nonzero" fill="#C5324F">
                <path d="M2.15625,0.65625 C2.15625,0.3110625 1.8764375,0.03125 1.53125,0.03125 L0.28125,0.03125 L0.28125,2.84375 L2.15625,2.84375 L2.15625,0.65625 Z" id="Shape"></path>
                <path d="M26.34375,0.03125 L25.09375,0.03125 L25.09375,3.78125 L26.96875,3.78125 L26.96875,0.65625 C26.96875,0.3110625 26.6889375,0.03125 26.34375,0.03125 Z" id="Shape"></path>
                <path d="M18.6979375,0.65625 C18.6979375,0.3110625 18.418125,0.03125 18.0729375,0.03125 L16.8229375,0.03125 L16.8229375,2.84375 L18.6979375,2.84375 L18.6979375,0.65625 Z" id="Shape"></path>
                <path d="M22.28125,2.84375 L21.03125,2.84375 L21.03125,4.71875 L0.03125,4.71875 L0.03125,6.59375 L22.90625,6.59375 L22.90625,3.46875 C22.90625,3.1235625 22.6264375,2.84375 22.28125,2.84375 Z" id="Shape"></path>
                <path d="M10.4270625,0.65625 C10.4270625,0.3110625 10.14725,0.03125 9.8020625,0.03125 L8.5520625,0.03125 L8.5520625,2.84375 L10.4270625,2.84375 L10.4270625,0.65625 Z" id="Shape"></path>
            </g>
            <path d="M31.375,19.8570625 L31.375,19.692125 C31.375,19.0583125 31.0488125,18.4993125 30.5555625,18.174 C31.0744375,17.631 31.375,16.903 31.375,16.125 C31.375,15.3381875 31.06725,14.5260625 30.5306875,13.8968125 C30.067375,13.3535 29.4916875,13.006125 28.875,12.8886875 L28.875,2.34375 C28.875,1.051375 27.823625,0 26.53125,0 L5.46875,0 C4.176375,0 3.125,1.051375 3.125,2.34375 L3.125,12.8886875 C2.5083125,13.006125 1.932625,13.3535 1.4693125,13.8968125 C0.93275,14.5260625 0.625,15.3381875 0.625,16.125 C0.625,16.903 0.9255,17.631 1.4444375,18.174 C0.9511875,18.49925 0.625,19.0583125 0.625,19.6920625 L0.625,19.857 C0.256125,20.033 0,20.4085 0,20.8436875 L0,23.9686875 C0,24.2275625 0.209875,24.4374375 0.46875,24.4374375 C0.727625,24.4374375 0.9375,24.2275625 0.9375,23.9686875 L0.9375,20.8436875 C0.9375,20.7575625 1.007625,20.6874375 1.09375,20.6874375 L6.09375,20.6874375 C6.179875,20.6874375 6.25,20.7575625 6.25,20.8436875 L6.25,22.5625 L5.21875,22.5625 C4.6156875,22.5625 4.125,23.0531875 4.125,23.65625 L4.125,26.78125 C4.125,27.040125 4.334875,27.25 4.59375,27.25 C4.852625,27.25 5.0625,27.040125 5.0625,26.78125 L5.0625,23.65625 C5.0625,23.570125 5.132625,23.5 5.21875,23.5 L10.21875,23.5 C10.304875,23.5 10.375,23.570125 10.375,23.65625 L10.375,26.78125 C10.375,27.040125 10.584875,27.25 10.84375,27.25 C11.102625,27.25 11.3125,27.040125 11.3125,26.78125 L11.3125,23.65625 C11.3125,23.0531875 10.8218125,22.5625 10.21875,22.5625 L9.2083125,22.5625 L9.2083125,20.84375 C9.2083125,20.757625 9.2784375,20.6875 9.3645625,20.6875 L14.3645625,20.6875 C14.4506875,20.6875 14.5208125,20.757625 14.5208125,20.84375 L14.5208125,22.5625 L13.53125,22.5625 C12.9281875,22.5625 12.4375,23.0531875 12.4375,23.65625 L12.4375,26.78125 C12.4375,27.040125 12.647375,27.25 12.90625,27.25 C13.165125,27.25 13.375,27.040125 13.375,26.78125 L13.375,23.65625 C13.375,23.570125 13.445125,23.5 13.53125,23.5 L18.53125,23.5 C18.6174375,23.5 18.6875,23.570125 18.6875,23.65625 L18.6875,26.78125 C18.6875,27.040125 18.8973125,27.25 19.15625,27.25 C19.4151875,27.25 19.625,27.040125 19.625,26.78125 L19.625,23.65625 C19.625,23.0531875 19.1343125,22.5625 18.53125,22.5625 L17.4791875,22.5625 L17.4791875,20.84375 C17.4791875,20.757625 17.54925,20.6875 17.6354375,20.6875 L22.6354375,20.6875 C22.721625,20.6875 22.7916875,20.757625 22.7916875,20.84375 L22.7916875,22.5625 L21.84375,22.5625 C21.2406875,22.5625 20.75,23.0531875 20.75,23.65625 L20.75,26.78125 C20.75,27.040125 20.9598125,27.25 21.21875,27.25 C21.4776875,27.25 21.6875,27.040125 21.6875,26.78125 L21.6875,23.65625 C21.6875,23.570125 21.7575625,23.5 21.84375,23.5 L26.84375,23.5 C26.9299375,23.5 27,23.570125 27,23.65625 L27,26.78125 C27,27.040125 27.2098125,27.25 27.46875,27.25 C27.7276875,27.25 27.9375,27.040125 27.9375,26.78125 L27.9375,23.65625 C27.9375,23.0531875 27.4468125,22.5625 26.84375,22.5625 L25.75,22.5625 L25.75,20.84375 C25.75,20.757625 25.8200625,20.6875 25.90625,20.6875 L30.90625,20.6875 C30.9924375,20.6875 31.0625,20.757625 31.0625,20.84375 L31.0625,23.96875 C31.0625,24.227625 31.2723125,24.4375 31.53125,24.4375 C31.7901875,24.4375 32,24.227625 32,23.96875 L32,20.84375 C32,20.4085625 31.743875,20.033 31.375,19.8570625 Z M30.4375,16.125 C30.4375,16.8854375 30.0175625,17.5763125 29.341625,17.927875 C29.15,18.0275625 29.05125,18.24525 29.102625,18.4550625 C29.153875,18.664875 29.3419375,18.8125 29.5579375,18.8125 C30.0429375,18.8125 30.4375,19.2070625 30.4375,19.6920625 L30.4375,19.75 L26.375,19.75 L26.375,19.6920625 C26.375,19.2070625 26.7695625,18.8125 27.2545625,18.8125 C27.4705625,18.8125 27.658625,18.6649375 27.709875,18.4550625 C27.7611875,18.24525 27.6625,18.0275625 27.470875,17.927875 C26.7949375,17.5763125 26.375,16.8854375 26.375125,16.1244375 L26.37575,16.0995 C26.3888125,15.0274375 27.2785625,13.7813125 28.40625,13.7813125 C29.55025,13.78125 30.4375,15.041125 30.4375,16.125 Z M5.46875,0.9375 L26.53125,0.9375 C27.306625,0.9375 27.9375,1.5683125 27.9375,2.34375 L27.9375,12.8888125 C27.3264375,13.005375 26.755,13.3478125 26.293875,13.883 C25.8653125,14.380375 25.580375,14.996 25.4791875,15.625 L23.062625,15.625 C22.96175,14.9970625 22.676625,14.380875 22.24775,13.8830625 C21.6703125,13.2128125 20.9201875,12.84375 20.1354375,12.84375 C19.3506875,12.84375 18.6005,13.2128125 18.0230625,13.883 C17.5945,14.380375 17.3095625,14.996 17.208375,15.625 L14.7918125,15.625 C14.6909375,14.9970625 14.4058125,14.380875 13.9769375,13.8830625 C13.3995,13.2128125 12.6493125,12.84375 11.864625,12.84375 C11.079875,12.84375 10.3296875,13.2128125 9.7523125,13.8830625 C9.3238125,14.380375 9.038875,14.9958125 8.9376875,15.625 L6.5210625,15.625 C6.4201875,14.9970625 6.1350625,14.380875 5.7061875,13.8830625 C5.2450625,13.347875 4.673625,13.005375 4.062625,12.888875 L4.062625,2.34375 C4.0625,1.5683125 4.6933125,0.9375 5.46875,0.9375 Z M19.2000625,17.927875 C18.524125,17.5763125 18.1041875,16.8854375 18.1043125,16.1244375 L18.1049375,16.0995 C18.118,15.0274375 19.00775,13.7813125 20.1354375,13.7813125 C21.2630625,13.7813125 22.1528125,15.0275 22.1659375,16.0993125 L22.1666875,16.1250625 C22.1666875,16.8855 21.74675,17.5763125 21.07075,17.9279375 C20.879125,18.027625 20.780375,18.2453125 20.83175,18.455125 C20.883,18.6649375 21.0710625,18.8125625 21.2870625,18.8125625 C21.772125,18.8125625 22.1666875,19.207125 22.1666875,19.692125 L22.1666875,19.75 L18.1041875,19.75 L18.1041875,19.6920625 C18.1041875,19.2070625 18.49875,18.8125 18.98375,18.8125 C19.19975,18.8125 19.3878125,18.6649375 19.4390625,18.4550625 C19.4904375,18.24525 19.39175,18.0275625 19.2000625,17.927875 Z M10.92925,17.927875 C10.2533125,17.57625 9.833375,16.8854375 9.8335,16.123625 L9.834125,16.0994375 C9.8471875,15.0274375 10.737,13.78125 11.864625,13.78125 C12.99225,13.78125 13.8820625,15.0274375 13.895125,16.09925 L13.895875,16.125 C13.895875,16.8854375 13.4759375,17.57625 12.7999375,17.927875 C12.6083125,18.0275625 12.5095625,18.24525 12.5609375,18.4550625 C12.61225,18.664875 12.80025,18.8125 13.01625,18.8125 C13.50125,18.8125 13.895875,19.2070625 13.895875,19.6920625 L13.895875,19.75 L9.833375,19.75 L9.833375,19.6920625 C9.833375,19.2070625 10.2279375,18.8125 10.7129375,18.8125 C10.9289375,18.8125 11.1169375,18.6649375 11.16825,18.455125 C11.2195625,18.24525 11.120875,18.0275625 10.92925,17.927875 Z M2.6584375,17.927875 C1.9824375,17.57625 1.5625,16.8854375 1.5625,16.125 C1.5625,15.041125 2.4498125,13.78125 3.59375,13.78125 C4.721375,13.78125 5.6111875,15.0274375 5.62425,16.09925 L5.625,16.125 C5.625,16.8854375 5.2050625,17.57625 4.5290625,17.927875 C4.3374375,18.0275625 4.2386875,18.24525 4.2900625,18.4550625 C4.341375,18.664875 4.529375,18.8125 4.745375,18.8125 C5.2304375,18.8125 5.625,19.2070625 5.625,19.6920625 L5.625,19.75 L1.5625,19.75 L1.5625,19.6920625 C1.5625,19.2070625 1.9570625,18.8125 2.442125,18.8125 C2.658125,18.8125 2.846125,18.6649375 2.8974375,18.4550625 C2.94875,18.24525 2.8500625,18.0275625 2.6584375,17.927875 Z M7.1875,22.5625 L7.1875,20.84375 C7.1875,20.4085625 6.931375,20.033 6.5625,19.8570625 L6.5625,19.692125 C6.5625,19.0583125 6.2363125,18.4993125 5.7430625,18.174 C6.1633125,17.7343125 6.4401875,17.1731875 6.5303125,16.5625 L8.928,16.5625 C9.0181875,17.1731875 9.295,17.73425 9.71525,18.174 C9.2219375,18.49925 8.8958125,19.0583125 8.8958125,19.692125 L8.8958125,19.8570625 C8.5269375,20.0330625 8.2708125,20.4085625 8.2708125,20.84375 L8.2708125,22.5625 L7.1875,22.5625 Z M15.4583125,22.5625 L15.4583125,20.84375 C15.4583125,20.4085625 15.2021875,20.033 14.8333125,19.8570625 L14.8333125,19.692125 C14.8333125,19.0583125 14.507125,18.4993125 14.013875,18.174 C14.434125,17.7343125 14.711,17.1731875 14.801125,16.5625 L17.1988125,16.5625 C17.289,17.1731875 17.565875,17.73425 17.9860625,18.174 C17.49275,18.49925 17.166625,19.0583125 17.166625,19.692125 L17.166625,19.8570625 C16.79775,20.0330625 16.541625,20.4085625 16.541625,20.84375 L16.541625,22.5625 L15.4583125,22.5625 Z M23.7291875,22.5625 L23.7291875,20.84375 C23.7291875,20.4085625 23.4730625,20.033 23.1041875,19.8570625 L23.1041875,19.692125 C23.1041875,19.0583125 22.778,18.4993125 22.2846875,18.174 C22.7049375,17.7343125 22.981875,17.1731875 23.072,16.5625 L25.4696875,16.5625 C25.559875,17.1731875 25.83675,17.73425 26.2569375,18.174 C25.763625,18.49925 25.4375,19.0583125 25.4375,19.692125 L25.4375,19.8570625 C25.068625,20.0330625 24.8125,20.4085625 24.8125,20.84375 L24.8125,22.5625 L23.7291875,22.5625 Z" id="Shape" fill="#000000" fill-rule="nonzero"></path>
            <path d="M13.1875,9.6875 C13.44625,9.6875 13.65625,9.4775 13.65625,9.21875 L13.65625,6.2275 L17.7643125,8.28125 L12.9849375,10.67125 C12.9705625,10.678125 12.9561875,10.685625 12.9418125,10.694375 L12.9399375,10.695625 C12.9399375,10.695625 12.9393125,10.69625 12.9386875,10.69625 C12.8755625,10.735625 12.8218125,10.790625 12.7843125,10.855 C12.7836875,10.855625 12.7830625,10.856875 12.7824375,10.8575 L12.7818125,10.85875 C12.7511875,10.91125 12.7311875,10.969375 12.7230625,11.03 C12.7149375,11.090625 12.7180625,11.15125 12.7330625,11.210625 C12.7336875,11.210625 12.7336875,11.211875 12.7336875,11.211875 L12.7343125,11.215 C12.7455625,11.255 12.7611875,11.29375 12.7824375,11.33 C12.7830625,11.330625 12.7836875,11.331875 12.7843125,11.3325 C12.8280625,11.4075 12.8924375,11.468125 12.9686875,11.50875 L12.9693125,11.50875 L12.9724375,11.510625 C13.0174375,11.53375 13.0649375,11.549375 13.1155625,11.556875 L13.1155625,11.55375 L13.1161875,11.556875 C13.1399375,11.560625 13.1643125,11.5625 13.1874375,11.5625 C13.2249375,11.5625 13.2618125,11.558125 13.2980625,11.549375 L13.2993125,11.54875 L13.3018125,11.54875 C13.3368125,11.54 13.3705625,11.526875 13.4030625,11.51 L19.0218125,8.700625 C19.181875,8.620625 19.2811875,8.46 19.2811875,8.28125 C19.2811875,8.1025 19.1818125,7.941875 19.0218125,7.861875 L13.3968125,5.049375 C13.2536875,4.978125 13.0768125,4.985625 12.9411875,5.07 C12.8018125,5.15625 12.7186875,5.305 12.7186875,5.46875 L12.7186875,9.21875 C12.71875,9.4775 12.92875,9.6875 13.1875,9.6875 Z" id="Shape" fill="#000000" fill-rule="nonzero"></path>
            <polygon id="Triangle" fill="#000000" transform="translate(16.000000, 33.500000) scale(1, -1) translate(-16.000000, -33.500000) " points="16 26 28 41 4 41"></polygon>
        </g>
    </g>
</svg>